<mxfile host="Electron" modified="2024-12-25T14:56:41.057Z" agent="Mozilla/5.0 (Windows NT 10.0; Win64; x64) AppleWebKit/537.36 (KHTML, like Gecko) draw.io/21.3.7 Chrome/112.0.5615.204 Electron/24.5.0 Safari/537.36" etag="kNhLtdI6Dch9nFXTK5aP" version="21.3.7" type="device">
  <diagram name="Page-1" id="oDVA2JJZpbs1l2T095Jr">
    <mxGraphModel dx="3056" dy="1554" grid="1" gridSize="10" guides="1" tooltips="1" connect="1" arrows="1" fold="1" page="1" pageScale="1" pageWidth="827" pageHeight="1169" math="0" shadow="0">
      <root>
        <mxCell id="0" />
        <mxCell id="1" parent="0" />
        <mxCell id="BfeEX6xmO0SmQzJ6OCto-1" value="&lt;font color=&quot;#ffffff&quot; face=&quot;Libre Bodoni&quot; data-font-src=&quot;https://fonts.googleapis.com/css?family=Libre+Bodoni&quot; style=&quot;font-size: 300px;&quot;&gt;&lt;b style=&quot;&quot;&gt;PrismGPT&lt;/b&gt;&lt;/font&gt;" style="text;html=1;align=center;verticalAlign=middle;whiteSpace=wrap;rounded=0;" vertex="1" parent="1">
          <mxGeometry x="370" y="230" width="200" height="170" as="geometry" />
        </mxCell>
      </root>
    </mxGraphModel>
  </diagram>
</mxfile>
